# xmcd
#
# Track frame offsets:
#	150
#	15590
#	28188
#	43266
#	60272
#	74903
#	93284
#	109653
#	128583
#	145996
#	161521
#	180700
#	202100
#	217023
#	232687
#	244356
#	262181
#	275286
#	296341
#	311981
#	326528
#
# Disc length: 4586 seconds
#
# Revision: 1
# Processed by: cddbd v1.5.2PL0 Copyright (c) Steve Scherf et al.
# Submitted via: audiograbber 1.83.01
#
DISCID=4011e815
DTITLE=Dolly Parton - Dolly (Box Set)(CD 4)
DYEAR=2009
DGENRE=Country
TTITLE0=Old Flames Can't Hold A Candle To You
TTITLE1=9 To 5
TTITLE2=But You Know I Love You
TTITLE3=Single Woman
TTITLE4=Heartbreak Express
TTITLE5=Do I Ever Cross Your Mind (With Chet Adkins)
TTITLE6=Potential New Boyfriend
TTITLE7=Islands In The Stream (With Kenny Rogers)
TTITLE8=Save The Last Dance For Me
TTITLE9=Tennessee Homesick Blues
TTITLE10=God Won't Get You
TTITLE11=What A Heartache
TTITLE12=Don't Call It Love
TTITLE13=Think About Love
TTITLE14=Why'd You Come In Here Lookin' Like That
TTITLE15=Yellow Roses
TTITLE16=Time For Me To Fly
TTITLE17=He's Alive
TTITLE18=Rockin' Years (With Ricky Van Shelton)
TTITLE19=Eagle When She Flies
TTITLE20=Silver And Gold
EXTD=
EXTT0=
EXTT1=
EXTT2=
EXTT3=
EXTT4=
EXTT5=
EXTT6=
EXTT7=
EXTT8=
EXTT9=
EXTT10=
EXTT11=
EXTT12=
EXTT13=
EXTT14=
EXTT15=
EXTT16=
EXTT17=
EXTT18=
EXTT19=
EXTT20=
PLAYORDER=
